<svg fill="#066fd1" xmlns="http://www.w3.org/2000/svg" xmlns:xlink="http://www.w3.org/1999/xlink" version="1.1" id="Capa_1" x="0px" y="0px" viewBox="0 0 476.801 476.801" style="enable-background:new 0 0 476.801 476.801;" xml:space="preserve" class="svg replaced-svg">
<path d="M363.526,415.046V230.763c3.324-0.971,5.754-4.037,5.754-7.674c0-19.841-10.646-38.376-27.783-48.372l-39.828-23.231  c-10.404-6.069-16.868-17.323-16.868-29.369v-17.399h0.04c4.418,0,8-3.582,8-8V22.513C292.841,10.1,282.741,0,270.328,0h-63.855  C194.06,0,183.96,10.1,183.96,22.513v74.204c0,4.418,3.582,8,8,8H192v17.399c0,12.046-6.464,23.3-16.869,29.369l-39.827,23.231  c-17.137,9.996-27.783,28.531-27.783,48.372c0,3.637,2.43,6.703,5.754,7.674v184.283c-3.324,0.971-5.754,4.037-5.754,7.674v10.08  c0,24.262,19.738,44,44,44h173.76c24.262,0,44-19.738,44-44v-10.08C369.28,419.083,366.85,416.018,363.526,415.046z M199.96,88.717  V71.729h76.881v16.987h-0.04H200H199.96z M206.473,16h63.855c3.591,0,6.513,2.922,6.513,6.513v33.217H199.96V22.513  C199.96,18.922,202.882,16,206.473,16z M143.366,188.537l39.826-23.231C198.494,156.381,208,139.831,208,122.116v-17.399h60.801  v17.399c0,17.715,9.506,34.265,24.807,43.189l39.827,23.231c9.898,5.773,16.765,15.534,19.03,26.552h-11.664c-4.418,0-8,3.582-8,8  s3.582,8,8,8h6.726V273.5c-6.065-0.643-9.817-2.249-13.997-4.048c-6.155-2.648-13.132-5.651-26.397-5.651  s-20.242,3.003-26.397,5.651c-5.421,2.334-10.103,4.349-20.071,4.349c-9.967,0-14.648-2.015-20.068-4.349  c-6.154-2.648-13.13-5.651-26.395-5.651s-20.241,3.003-26.396,5.652c-5.42,2.333-10.102,4.348-20.068,4.348  s-14.648-2.015-20.068-4.349c-4.778-2.056-10.066-4.32-18.394-5.232v-33.131h160.326c4.418,0,8-3.582,8-8s-3.582-8-8-8H124.336  C126.602,204.071,133.468,194.311,143.366,188.537z M353.28,432.801c0,15.439-12.561,28-28,28h-173.76c-15.439,0-28-12.561-28-28  v-2.08h166.08c4.418,0,8-3.582,8-8s-3.582-8-8-8H129.274V280.343c4.974,0.753,8.347,2.204,12.067,3.806  c6.154,2.649,13.13,5.652,26.395,5.652s20.24-3.003,26.395-5.651c5.42-2.334,10.102-4.349,20.069-4.349  c9.967,0,14.648,2.015,20.068,4.349c6.154,2.648,13.13,5.651,26.395,5.651c13.266,0,20.242-3.003,26.397-5.651  c5.421-2.334,10.103-4.349,20.071-4.349s14.65,2.015,20.071,4.349c5.138,2.21,10.862,4.662,20.323,5.414v125.158h-6.726  c-4.418,0-8,3.582-8,8s3.582,8,8,8h12.479V432.801z"></path>
<g>
</g>
<g>
</g>
<g>
</g>
<g>
</g>
<g>
</g>
<g>
</g>
<g>
</g>
<g>
</g>
<g>
</g>
<g>
</g>
<g>
</g>
<g>
</g>
<g>
</g>
<g>
</g>
<g>
</g>
</svg>