<svg fill="black" xmlns="http://www.w3.org/2000/svg" xmlns:xlink="http://www.w3.org/1999/xlink" version="1.1" id="Layer_1" x="0px" y="0px" viewBox="0 0 195.83 195.83" style="enable-background:new 0 0 195.83 195.83;" xml:space="preserve" class="svg replaced-svg">
<g>
	<g>
		<path d="M145.949,75.753V60.966c0-17.316-14.081-31.407-31.389-31.407h-1.866v-7.39h3.695c2.04,0,3.695-1.653,3.695-3.695V3.695    c0-2.042-1.655-3.695-3.695-3.695H79.441c-2.04,0-3.695,1.653-3.695,3.695v14.78c0,2.042,1.655,3.695,3.695,3.695h3.695v7.39    H81.27c-17.307,0-31.389,14.091-31.389,31.407v14.787c0,5.252,2.491,9.885,6.299,12.933c-3.808,3.049-6.299,7.678-6.299,12.924    c0,5.25,2.496,9.883,6.309,12.932c-3.814,3.049-6.309,7.682-6.309,12.932s2.496,9.883,6.309,12.932    c-3.814,3.049-6.309,7.682-6.309,12.932s2.496,9.883,6.309,12.932c-3.814,3.049-6.309,7.682-6.309,12.932v12.932    c0,2.042,1.655,3.695,3.695,3.695h88.678c2.04,0,3.695-1.653,3.695-3.695v-12.932c0-5.25-2.496-9.883-6.309-12.932    c3.814-3.049,6.309-7.682,6.309-12.932s-2.496-9.883-6.309-12.932c3.814-3.049,6.309-7.682,6.309-12.932    s-2.496-9.883-6.309-12.932c3.814-3.049,6.309-7.682,6.309-12.932c0-5.245-2.491-9.874-6.299-12.924    C143.458,85.639,145.949,81.005,145.949,75.753z M83.136,7.39h29.559v7.39H109H86.831h-3.695V7.39z M138.559,188.44H57.271v-9.237    c0-5.095,4.148-9.237,9.246-9.237h62.795c5.099,0,9.247,4.142,9.247,9.237V188.44z M129.313,162.576H66.517    c-5.098,0-9.246-4.142-9.246-9.237c0-5.095,4.148-9.237,9.246-9.237h62.795c5.099,0,9.247,4.142,9.247,9.237    C138.559,158.434,134.411,162.576,129.313,162.576z M129.313,136.712H66.517c-5.098,0-9.246-4.142-9.246-9.237    c0-5.095,4.148-9.237,9.246-9.237h62.795c5.099-0.001,9.247,4.142,9.247,9.237C138.559,132.57,134.411,136.712,129.313,136.712z     M129.313,110.847H66.517c-5.098,0-9.246-4.142-9.246-9.237c0-5.095,4.148-9.237,9.246-9.237h62.795    c5.099,0,9.247,4.142,9.247,9.237C138.559,106.705,134.411,110.847,129.313,110.847z M138.559,75.753    c0,5.088-4.126,9.23-9.199,9.23h-0.047H66.517H66.47c-5.073,0-9.199-4.142-9.199-9.23V60.966    c0-13.243,10.766-24.017,23.999-24.017h5.56c2.04,0,3.695-1.653,3.695-3.695V22.169h14.78v11.085c0,2.042,1.655,3.695,3.695,3.695    h5.56c13.233,0,23.999,10.774,23.999,24.017V75.753z"></path>
	</g>
</g>
<g>
</g>
<g>
</g>
<g>
</g>
<g>
</g>
<g>
</g>
<g>
</g>
<g>
</g>
<g>
</g>
<g>
</g>
<g>
</g>
<g>
</g>
<g>
</g>
<g>
</g>
<g>
</g>
<g>
</g>
</svg>