<svg xmlns="http://www.w3.org/2000/svg" fill="#066fd1k" xmlns:xlink="http://www.w3.org/1999/xlink" version="1.1" id="Layer_1" x="0px" y="0px" viewBox="0 0 398.9 398.9" style="enable-background:new 0 0 398.9 398.9;" xml:space="preserve" class="svg replaced-svg">
<g transform="translate(0 -540.36)">
	<g>
		<g>
			<path d="M350.95,572.86c-0.1-11.5-15-19.2-48.1-25c-27.5-4.8-64.3-7.5-103.4-7.5s-75.9,2.7-103.4,7.5     c-33.1,5.8-47.9,13.5-48.1,24.9c0,0.1,0,0.1,0,0.2c0,0.7,0.1,1.4,0.2,2l33,333.7c1,10.8,13.6,18.3,39.5,23.7     c21.3,4.5,49.7,6.9,80.1,6.9c29.6,0,57.6-2.7,78.9-7.6c25.3-5.8,37.8-13.8,38.2-24.6l16.4-165.2c0.1-0.5,0.1-1,0.2-1.5     l16.3-165.3l0,0c0.1-0.7,0.2-1.4,0.2-2.1V572.86z M302.85,906.06c0,0.1,0,0.2,0,0.4c-1.1,1.8-8.3,7.1-30.3,11.6     c-19.8,4.1-45.3,6.4-71.8,6.4c-27.7,0-53.9-2.1-73.8-6c-22.6-4.4-29.8-9.5-30.9-11.3l-14.8-149.7c6.8,2.8,15.7,5.3,26.8,7.5     c24.6,4.8,57.1,7.5,91.4,7.5s66.8-2.7,91.4-7.5c11.1-2.2,19.9-4.7,26.7-7.5L302.85,906.06z M283.15,751.16     c-23,4.1-52.8,6.3-83.7,6.3s-60.6-2.2-83.7-6.3c-23.2-4.1-32.8-8.9-35.6-11.3c2.8-2.4,12.4-7.2,35.6-11.3     c23-4.1,52.8-6.3,83.7-6.3s60.6,2.2,83.7,6.3c23.2,4.1,32.7,8.9,35.6,11.3C315.95,742.26,306.35,747.06,283.15,751.16z      M321.05,723.76c-7.2-3.5-17.1-6.4-30.2-9c-24.6-4.8-57.1-7.5-91.4-7.5s-66.8,2.7-91.4,7.5c-13,2.6-23,5.5-30.1,9l-13.2-133.8     c7.6,3.1,18,5.7,31.4,8.1c27.5,4.8,64.3,7.5,103.4,7.5c39.1,0,75.9-2.7,103.4-7.5c13.4-2.3,23.7-5,31.4-8.1L321.05,723.76z      M294.65,584.26c-26,4.1-59.8,6.3-95.2,6.3s-69.2-2.2-95.2-6.3c-27.3-4.3-37-9.1-40.2-11.3c3.2-2.2,12.9-7,40.2-11.3     c26-4.1,59.8-6.3,95.2-6.3s69.2,2.2,95.2,6.3c27.3,4.3,37,9.1,40.2,11.3C331.65,575.16,322.05,579.96,294.65,584.26z"></path>
			<path d="M159.25,892.06l-29.9-7.6l-7.9-36.9c-0.9-4.1-4.9-6.7-8.9-5.8c-4.1,0.9-6.7,4.9-5.8,8.9l8.9,41.4c0.6,2.8,2.7,5,5.5,5.7     l34.4,8.8c0.7,0.1,1.3,0.2,1.9,0.2v0c3.3,0,6.3-2.3,7.2-5.6C165.65,897.16,163.25,893.06,159.25,892.06z"></path>
		</g>
	</g>
</g>
<g>
</g>
<g>
</g>
<g>
</g>
<g>
</g>
<g>
</g>
<g>
</g>
<g>
</g>
<g>
</g>
<g>
</g>
<g>
</g>
<g>
</g>
<g>
</g>
<g>
</g>
<g>
</g>
<g>
</g>
</svg>