<svg fill="white" xmlns="http://www.w3.org/2000/svg" xmlns:xlink="http://www.w3.org/1999/xlink" version="1.1" id="Capa_1" x="0px" y="0px" viewBox="0 0 60 60" style="enable-background:new 0 0 60 60;" xml:space="preserve" class="svg replaced-svg">
<g>
	<g>
		<path d="M45,18.9V10h3.6c1.3,0,2.4-1.3,2.4-3V1c0-0.6-0.4-1-1-1H28c-0.6,0-1,0.4-1,1v6c0,1.7,1.1,3,2.4,3H33v8.9    C24.1,21.6,18,29.7,18,39c0,11.6,9.4,21,21,21s21-9.4,21-21C60,29.7,53.9,21.5,45,18.9z M29,7V6h14V4H29V2h20v5c0,0.6-0.3,1-0.4,1    H44H34h-4.6C29.3,8,29,7.6,29,7z M39,58c-10.5,0-19-8.5-19-19c0-8.6,5.8-16.2,14.2-18.3c0.5-0.1,0.8-0.5,0.8-1V10h8v9.7    c0,0.5,0.4,0.9,0.8,1C52.1,22.8,58,30.4,58,39C58,49.5,49.5,58,39,58z"></path>
		<path d="M54,38H24c-0.6,0-1,0.4-1,1c0,8.8,7.2,16,16,16s16-7.2,16-16C55,38.4,54.6,38,54,38z M39,53c-7.4,0-13.5-5.7-14-13h28    C52.4,47.3,46.4,53,39,53z"></path>
		<path d="M4,57V34h12v-2H2v-2h16v-2H1c-0.6,0-1,0.4-1,1v4c0,0.6,0.4,1,1,1h1v23c0,1.7,1.3,3,3,3h20v-2H5C4.4,58,4,57.6,4,57z"></path>
		<polygon points="12,42 12,40 9,40 9,37 7,37 7,55 9,55 9,52 12,52 12,50 9,50 9,47 12,47 12,45 9,45 9,42   "></polygon>
		<rect x="30" y="42" width="2" height="2"></rect>
		<rect x="31" y="31" width="2" height="2"></rect>
		<rect x="39" y="32" width="2" height="2"></rect>
		<rect x="36" y="25" width="2" height="2"></rect>
		<rect x="3" y="23" width="2" height="2"></rect>
		<rect x="15" y="23" width="2" height="2"></rect>
		<rect x="9" y="18" width="2" height="2"></rect>
		<rect x="14" y="12" width="2" height="2"></rect>
		<rect x="4" y="10" width="2" height="2"></rect>
		<rect x="44" y="29" width="2" height="2"></rect>
		<rect x="50" y="34" width="2" height="2"></rect>
		<rect x="25" y="34" width="2" height="2"></rect>
		<rect x="33" y="46" width="2" height="2"></rect>
		<rect x="38" y="43" width="2" height="2"></rect>
		<rect x="38" y="49" width="2" height="2"></rect>
		<rect x="43" y="46" width="2" height="2"></rect>
		<rect x="46" y="42" width="2" height="2"></rect>
	</g>
</g>
<g>
</g>
<g>
</g>
<g>
</g>
<g>
</g>
<g>
</g>
<g>
</g>
<g>
</g>
<g>
</g>
<g>
</g>
<g>
</g>
<g>
</g>
<g>
</g>
<g>
</g>
<g>
</g>
<g>
</g>
</svg>